# xmcd
#
# Track frame offsets:
#	150
#	14119
#	24476
#	45766
#	61197
#	73634
#	89149
#	101494
#
# Disc length: 1486 seconds
#
# Revision: 1
# Processed by: cddbd v1.5.2PL0 Copyright (c) Steve Scherf et al.
# Submitted via: audiograbber 1.83.01
#
DISCID=6305cc08
DTITLE=Daywind 2000 - Radio Disc Vol. 33
DYEAR=1900
DGENRE=
TTITLE0=Lordsong - I'll Consider The Source
TTITLE1=Ernie Haase - When Jesus Comes In The Clouds
TTITLE2=Daywind Family Of Artists - He Was, He is, He Is To Come
TTITLE3=Freemans - Something Out Of Nothing
TTITLE4=Lewis Family - I'll Meet You On The Mountain
TTITLE5=Easter Brothers - My Lord Is There, Too
TTITLE6=Cumberland Boys - He's Living Deep Within
TTITLE7=Perrys - Praise God, It's Settled, I'm Saved
EXTD=
EXTT0=
EXTT1=
EXTT2=
EXTT3=
EXTT4=
EXTT5=
EXTT6=
EXTT7=
PLAYORDER=
